<?xml version="1.0" encoding="UTF-8"?>
<svg version="1.1" xmlns="http://www.w3.org/2000/svg" width="140" height="121">
<path d="M0 0 C2.25816209 0.83732608 3.62960466 1.81026476 5.44628906 3.38232422 C6.05601563 3.90697266 6.66574219 4.43162109 7.29394531 4.97216797 C7.91914062 5.52259766 8.54433594 6.07302734 9.18847656 6.64013672 C9.82140625 7.18283203 10.45433594 7.72552734 11.10644531 8.28466797 C13.88552312 10.69792237 16.00085629 12.67120631 18.06347656 15.76513672 C20.92142345 16.22743519 20.92142345 16.22743519 24.28613281 16.17138672 C25.54748047 16.19330078 26.80882812 16.21521484 28.10839844 16.23779297 C29.44757877 16.24857305 30.78677362 16.25767598 32.12597656 16.26513672 C50.71663622 16.39430259 50.71663622 16.39430259 58.93847656 21.57763672 C63.21238264 25.97724592 64.27676467 29.72636304 64.50097656 35.76513672 C64.37354175 40.91350309 63.53100131 43.8022513 60.06347656 47.76513672 C59.48597656 48.54888672 58.90847656 49.33263672 58.31347656 50.14013672 C57.90097656 50.67638672 57.48847656 51.21263672 57.06347656 51.76513672 C57.65773438 51.86052734 58.25199219 51.95591797 58.86425781 52.05419922 C61.53766229 52.91842589 62.48242426 53.98513983 64.25097656 56.14013672 C64.76015625 56.74599609 65.26933594 57.35185547 65.79394531 57.97607422 C69.0778788 62.60389434 68.59451263 68.34856887 68.06347656 73.76513672 C66.55075557 78.66781078 63.28542361 81.78486324 59.23535156 84.72216797 C52.81784228 87.8039575 46.38897734 88.03616806 39.41894531 87.92529297 C38.52734207 87.9200914 37.63573883 87.91488983 36.71711731 87.90953064 C33.89489729 87.89185358 31.07305509 87.86067875 28.25097656 87.82763672 C25.41108394 87.79998558 22.57124248 87.7753039 19.73127747 87.75645447 C17.97055925 87.74422761 16.20986819 87.72665363 14.44926453 87.70314026 C11.06034342 87.67529341 8.30267285 87.68540462 5.06347656 88.76513672 C2.42347656 88.43513672 -0.21652344 88.10513672 -2.93652344 87.76513672 C-3.26652344 68.95513672 -3.59652344 50.14513672 -3.93652344 30.76513672 C-5.25652344 30.76513672 -6.57652344 30.76513672 -7.93652344 30.76513672 C-8.26652344 26.14513672 -8.59652344 21.52513672 -8.93652344 16.76513672 C-11.90652344 16.43513672 -14.87652344 16.10513672 -17.93652344 15.76513672 C-14.47047326 11.47817992 -10.82016538 7.55437074 -6.81152344 3.76513672 C-5.98394531 2.98138672 -5.15636719 2.19763672 -4.30371094 1.39013672 C-1.93652344 -0.23486328 -1.93652344 -0.23486328 0 0 Z M7.06347656 29.76513672 C7.06347656 35.37513672 7.06347656 40.98513672 7.06347656 46.76513672 C7.39347656 46.10513672 7.72347656 45.44513672 8.06347656 44.76513672 C9.09754639 44.78608398 10.13161621 44.80703125 11.19702148 44.82861328 C15.04534985 44.9011896 18.8936181 44.94699989 22.74243164 44.98486328 C24.40594669 45.00493879 26.06939153 45.03220548 27.73266602 45.06689453 C30.12826896 45.11559438 32.52293648 45.13814527 34.91894531 45.15576172 C35.65872116 45.17640686 36.39849701 45.197052 37.16069031 45.21832275 C40.83849371 45.21990932 42.8941505 44.8715059 46.03735352 42.89697266 C48.2500969 40.93378822 48.2500969 40.93378822 48.62597656 38.26513672 C47.8641952 34.87944176 46.83924119 33.85488002 44.06347656 31.76513672 C41.17382536 31.41603622 38.67754946 31.29698052 35.79785156 31.37451172 C35.00445374 31.38017151 34.21105591 31.3858313 33.39361572 31.3916626 C30.86628183 31.41400525 28.34037991 31.46419496 25.81347656 31.51513672 C24.09735125 31.53520457 22.38120364 31.55345485 20.66503906 31.56982422 C16.46396876 31.61386277 12.26396522 31.68287346 8.06347656 31.76513672 C7.73347656 31.10513672 7.40347656 30.44513672 7.06347656 29.76513672 Z M24.06347656 58.76513672 C24.06347656 63.38513672 24.06347656 68.00513672 24.06347656 72.76513672 C27.79385503 72.90018662 31.51934069 72.99928804 35.25097656 73.07763672 C36.30607422 73.11953125 37.36117187 73.16142578 38.44824219 73.20458984 C44.7938484 73.35540386 44.7938484 73.35540386 50.28613281 70.44091797 C52.30987838 67.86357983 52.30987838 67.86357983 52.31347656 64.64013672 C50.85244786 61.2797707 49.56588141 60.66126302 46.23388672 59.34521484 C42.07782808 58.23443922 37.89573504 58.45775149 33.62597656 58.57763672 C32.24249023 58.59793945 32.24249023 58.59793945 30.83105469 58.61865234 C28.57493947 58.65372149 26.31912854 58.70751836 24.06347656 58.76513672 Z " fill="#010103" transform="translate(60.9365234375,8.23486328125)"/>
<path d="M0 0 C2.25816209 0.83732608 3.62960466 1.81026476 5.44628906 3.38232422 C6.05601563 3.90697266 6.66574219 4.43162109 7.29394531 4.97216797 C7.91914062 5.52259766 8.54433594 6.07302734 9.18847656 6.64013672 C9.82140625 7.18283203 10.45433594 7.72552734 11.10644531 8.28466797 C13.88552312 10.69792237 16.00085629 12.67120631 18.06347656 15.76513672 C17.42539063 15.82572266 16.78730469 15.88630859 16.12988281 15.94873047 C14.89044922 16.07441406 14.89044922 16.07441406 13.62597656 16.20263672 C12.39041016 16.32445312 12.39041016 16.32445312 11.12988281 16.44873047 C9.07685631 16.55444486 9.07685631 16.55444486 8.06347656 17.76513672 C7.97452814 19.86620853 7.95661811 21.97030854 7.96582031 24.07324219 C7.96801071 25.06109711 7.96801071 25.06109711 7.97024536 26.06890869 C7.9740599 27.50344461 7.98018535 28.93797577 7.98831177 30.37249374 C8.00102934 32.64174082 8.00757939 34.91092972 8.01245117 37.1802063 C8.0258536 42.81857286 8.05002308 48.45688446 8.07385254 54.09521484 C8.09356531 58.85382905 8.10921612 63.61242265 8.11941528 68.37106705 C8.1259074 70.60848921 8.13841784 72.84582716 8.15112305 75.08322144 C8.15475575 76.45489427 8.15810746 77.82656788 8.16113281 79.19824219 C8.16898804 80.99574417 8.16898804 80.99574417 8.17700195 82.82955933 C8.06347656 85.76513672 8.06347656 85.76513672 7.06347656 88.76513672 C3.76347656 88.43513672 0.46347656 88.10513672 -2.93652344 87.76513672 C-3.26652344 68.95513672 -3.59652344 50.14513672 -3.93652344 30.76513672 C-5.25652344 30.76513672 -6.57652344 30.76513672 -7.93652344 30.76513672 C-8.26652344 26.14513672 -8.59652344 21.52513672 -8.93652344 16.76513672 C-11.90652344 16.43513672 -14.87652344 16.10513672 -17.93652344 15.76513672 C-14.47047326 11.47817992 -10.82016538 7.55437074 -6.81152344 3.76513672 C-5.98394531 2.98138672 -5.15636719 2.19763672 -4.30371094 1.39013672 C-1.93652344 -0.23486328 -1.93652344 -0.23486328 0 0 Z " fill="#3EB4F6" transform="translate(60.9365234375,8.23486328125)"/>
<path d="M0 0 C0.88499233 2.65497699 0.97819466 4.59964687 0.875 7.4375 C0.80896096 19.30251369 5.01225679 30.86155856 13.328125 39.38671875 C21.87726714 46.65886639 30.78355704 49.25368447 41.64306641 50.9621582 C46.79946295 51.79946295 46.79946295 51.79946295 49 54 C49.375 57.4375 49.375 57.4375 49 61 C46.68522246 63.44400055 45.25498861 63.96724328 41.8984375 64.3984375 C28.44558865 64.3089507 18.03324958 61.42810837 7.92578125 52.08203125 C-0.73957911 42.6647958 -5.14843279 31.80974997 -5 19 C-4.04540671 12.42160712 -2.62003383 6.12103973 0 0 Z " fill="#030406" transform="translate(19,46)"/>
<path d="M0 0 C4.95 0 9.9 0 15 0 C15 17.82 15 35.64 15 54 C8 53 8 53 4 51 C3.505 33.675 3.505 33.675 3 16 C2.01 15.67 1.02 15.34 0 15 C0 10.05 0 5.1 0 0 Z " fill="#40B4F5" transform="translate(41,41)"/>
<path d="M0 0 C4.95 0 9.9 0 15 0 C15 10.89 15 21.78 15 33 C11.48334793 30.89000876 8.81048175 29.1442547 5.8125 26.5 C5.13832031 25.9121875 4.46414062 25.324375 3.76953125 24.71875 C1.58136566 22.59337945 0.09641459 20.92423231 -0.22705078 17.82348633 C-0.21134033 16.59021606 -0.21134033 16.59021606 -0.1953125 15.33203125 C-0.18564453 13.99301758 -0.18564453 13.99301758 -0.17578125 12.62695312 C-0.15902344 11.69818359 -0.14226563 10.76941406 -0.125 9.8125 C-0.11597656 8.87212891 -0.10695313 7.93175781 -0.09765625 6.96289062 C-0.07409207 4.64181843 -0.03822121 2.32087711 0 0 Z " fill="#3EB5F8" transform="translate(28,58)"/>
<path d="M0 0 C1.7578125 0.875 1.7578125 0.875 2.7578125 2.875 C1.9946875 2.7925 1.2315625 2.71 0.4453125 2.625 C-2.32180363 2.60027194 -2.32180363 2.60027194 -3.9921875 4.5625 C-5.32401197 7.02637528 -5.85847856 9.11229565 -6.2421875 11.875 C-7.5621875 11.875 -8.8821875 11.875 -10.2421875 11.875 C-12.44286171 12.80783296 -12.44286171 12.80783296 -14.2421875 13.875 C-12.9221875 14.535 -11.6021875 15.195 -10.2421875 15.875 C-12.8821875 15.875 -15.5221875 15.875 -18.2421875 15.875 C-14.77613732 11.5880432 -11.12582944 7.66423402 -7.1171875 3.875 C-6.28960937 3.09125 -5.46203125 2.3075 -4.609375 1.5 C-2.2421875 -0.125 -2.2421875 -0.125 0 0 Z " fill="#4DB1E9" transform="translate(61.2421875,8.125)"/>
<path d="M0 0 C0.33 0 0.66 0 1 0 C1 3.63 1 7.26 1 11 C-2.53372712 9.03681826 -5.24479785 6.95929119 -8 4 C-6.68 4.33 -5.36 4.66 -4 5 C-4 4.34 -4 3.68 -4 3 C-3.01 3.33 -2.02 3.66 -1 4 C-0.67 2.68 -0.34 1.36 0 0 Z " fill="#47A9E2" transform="translate(42,80)"/>
</svg>
