<?xml version="1.0" standalone="no"?>
<svg xmlns:xlink="http://www.w3.org/1999/xlink" id="wave" style="transform:rotate(180deg); transition: 0.3s" viewBox="0 0 1440 280" version="1.1" xmlns="http://www.w3.org/2000/svg"><defs><linearGradient id="sw-gradient-0" x1="0" x2="0" y1="1" y2="0"><stop stop-color="rgba(62, 132.637, 243, 1)" offset="0%"/><stop stop-color="rgba(11, 64.897, 255, 1)" offset="100%"/></linearGradient></defs><path style="transform:translate(0, 0px); opacity:1" fill="url(#sw-gradient-0)" d="M0,56L40,65.3C80,75,160,93,240,102.7C320,112,400,112,480,135.3C560,159,640,205,720,210C800,215,880,177,960,154C1040,131,1120,121,1200,130.7C1280,140,1360,168,1440,186.7C1520,205,1600,215,1680,210C1760,205,1840,187,1920,149.3C2000,112,2080,56,2160,37.3C2240,19,2320,37,2400,51.3C2480,65,2560,75,2640,70C2720,65,2800,47,2880,37.3C2960,28,3040,28,3120,28C3200,28,3280,28,3360,37.3C3440,47,3520,65,3600,98C3680,131,3760,177,3840,205.3C3920,233,4000,243,4080,238C4160,233,4240,215,4320,200.7C4400,187,4480,177,4560,163.3C4640,149,4720,131,4800,144.7C4880,159,4960,205,5040,191.3C5120,177,5200,103,5280,65.3C5360,28,5440,28,5520,28C5600,28,5680,28,5720,28L5760,28L5760,280L5720,280C5680,280,5600,280,5520,280C5440,280,5360,280,5280,280C5200,280,5120,280,5040,280C4960,280,4880,280,4800,280C4720,280,4640,280,4560,280C4480,280,4400,280,4320,280C4240,280,4160,280,4080,280C4000,280,3920,280,3840,280C3760,280,3680,280,3600,280C3520,280,3440,280,3360,280C3280,280,3200,280,3120,280C3040,280,2960,280,2880,280C2800,280,2720,280,2640,280C2560,280,2480,280,2400,280C2320,280,2240,280,2160,280C2080,280,2000,280,1920,280C1840,280,1760,280,1680,280C1600,280,1520,280,1440,280C1360,280,1280,280,1200,280C1120,280,1040,280,960,280C880,280,800,280,720,280C640,280,560,280,480,280C400,280,320,280,240,280C160,280,80,280,40,280L0,280Z"/><defs><linearGradient id="sw-gradient-1" x1="0" x2="0" y1="1" y2="0"><stop stop-color="rgba(62, 126.506, 243, 1)" offset="0%"/><stop stop-color="rgba(11, 172.347, 255, 1)" offset="100%"/></linearGradient></defs><path style="transform:translate(0, 50px); opacity:0.9" fill="url(#sw-gradient-1)" d="M0,168L40,154C80,140,160,112,240,121.3C320,131,400,177,480,205.3C560,233,640,243,720,210C800,177,880,103,960,79.3C1040,56,1120,84,1200,121.3C1280,159,1360,205,1440,186.7C1520,168,1600,84,1680,46.7C1760,9,1840,19,1920,28C2000,37,2080,47,2160,74.7C2240,103,2320,149,2400,163.3C2480,177,2560,159,2640,158.7C2720,159,2800,177,2880,186.7C2960,196,3040,196,3120,177.3C3200,159,3280,121,3360,107.3C3440,93,3520,103,3600,121.3C3680,140,3760,168,3840,186.7C3920,205,4000,215,4080,205.3C4160,196,4240,168,4320,154C4400,140,4480,140,4560,140C4640,140,4720,140,4800,140C4880,140,4960,140,5040,140C5120,140,5200,140,5280,130.7C5360,121,5440,103,5520,116.7C5600,131,5680,177,5720,200.7L5760,224L5760,280L5720,280C5680,280,5600,280,5520,280C5440,280,5360,280,5280,280C5200,280,5120,280,5040,280C4960,280,4880,280,4800,280C4720,280,4640,280,4560,280C4480,280,4400,280,4320,280C4240,280,4160,280,4080,280C4000,280,3920,280,3840,280C3760,280,3680,280,3600,280C3520,280,3440,280,3360,280C3280,280,3200,280,3120,280C3040,280,2960,280,2880,280C2800,280,2720,280,2640,280C2560,280,2480,280,2400,280C2320,280,2240,280,2160,280C2080,280,2000,280,1920,280C1840,280,1760,280,1680,280C1600,280,1520,280,1440,280C1360,280,1280,280,1200,280C1120,280,1040,280,960,280C880,280,800,280,720,280C640,280,560,280,480,280C400,280,320,280,240,280C160,280,80,280,40,280L0,280Z"/></svg>